<svg width="48" height="48" viewBox="0 0 48 48" fill="none" xmlns="http://www.w3.org/2000/svg">
  <rect width="48" height="48" rx="11" fill="#111111"/>
  <path d="M17 14.5C17 13.1193 18.1193 12 19.5 12H31C32.3807 12 33.5 13.1193 33.5 14.5C33.5 15.8807 32.3807 17 31 17H19.5C18.1193 17 17 15.8807 17 14.5Z" fill="#34C98B"/>
  <path d="M14.5 24C14.5 22.6193 15.6193 21.5 17 21.5H28.5C29.8807 21.5 31 22.6193 31 24C31 25.3807 29.8807 26.5 28.5 26.5H17C15.6193 26.5 14.5 25.3807 14.5 24Z" fill="#F7F7F7"/>
  <path d="M17 33.5C17 32.1193 18.1193 31 19.5 31H31C32.3807 31 33.5 32.1193 33.5 33.5C33.5 34.8807 32.3807 36 31 36H19.5C18.1193 36 17 34.8807 17 33.5Z" fill="#34C98B"/>
</svg>
